<?xml version="1.0" encoding="UTF-8"?>
<!DOCTYPE svg PUBLIC "-//W3C//DTD SVG 1.1//EN" "http://www.w3.org/Graphics/SVG/1.1/DTD/svg11.dtd">
<!-- Creator: CorelDRAW 2021.5 -->
<svg xmlns="http://www.w3.org/2000/svg" xml:space="preserve" width="42.3332mm" height="42.3332mm" version="1.1" style="shape-rendering:geometricPrecision; text-rendering:geometricPrecision; image-rendering:optimizeQuality; fill-rule:evenodd; clip-rule:evenodd"
viewBox="0 0 4233.32 4233.32"
 xmlns:xlink="http://www.w3.org/1999/xlink"
 xmlns:xodm="http://www.corel.com/coreldraw/odm/2003">
 <defs>
  <style type="text/css">
   <![CDATA[
    .str0 {stroke:#7D45FF;stroke-width:16.93;stroke-miterlimit:22.9256}
    .fil0 {fill:none}
    .fil1 {fill:#7D45FF;fill-opacity:0.109804}
   ]]>
  </style>
 </defs>
 <g id="Layer_x0020_1">
  <metadata id="CorelCorpID_0Corel-Layer"/>
  <g id="_1951825790464">
   <path class="fil0 str0" d="M2790.56 1157.7c0,4.07 -4.97,8.08 -7.5,11.08 -1.55,1.84 -2.82,3.34 -4.22,5.08l-196.11 233.8c-11.62,13.83 -23.94,27.38 -35.06,41.62l-34.99 41.69c-1.64,1.76 -2.6,3.18 -4.24,5.06 -1.54,1.76 -2.69,3.21 -4.24,5.06l-17.28 20.67c-1.5,1.93 -2.51,2.94 -4.2,5.1l-144.28 171.75c-1.55,1.84 -2.81,3.33 -4.23,5.08 -1.55,1.92 -2.66,3.11 -4.21,5.08l-17.61 21.12c-1.55,1.85 -2.7,3.3 -4.23,5.06 -13.65,15.65 -31.11,35.85 -43.88,52.17l-143.51 170.98c-3.12,3.72 -5.9,6.84 -8.87,10.5 -22.7,28.04 -46.82,55.04 -69.49,83.11l-17.73 20.99c-13.66,14.33 -37.07,45.25 -52.3,62.35l-17.72 21c-5.78,7.14 -11.52,13.38 -17.26,20.7l-38.94 46.27c-1.65,1.96 -3,3.52 -4.56,5.51 -2.98,3.81 -6.02,6.87 -8.85,10.51 -2.67,3.44 -5.56,6.67 -8.41,10.18 -2.96,3.66 -5.74,6.78 -8.87,10.5l-61.15 72.85c-3.22,3.62 -5.59,6.91 -8.9,10.47 -1.64,1.75 -2.6,3.17 -4.24,5.05l-21.52 25.74c-11.04,14.2 -23.19,28.08 -35.03,41.65 -1.53,1.76 -2.68,3.22 -4.24,5.06l-30.69 36.7c-3.08,3.68 -5.7,6.97 -8.85,10.51 -20.94,23.52 -40.1,48.7 -60.79,72.44l-39.15 46.83c-1.82,2.04 -2.9,3.39 -4.66,5.42 -6.06,6.95 -11.25,13.67 -17.39,20.56l-69.54 83.06c-2.66,3.43 -5.92,6.7 -8.52,10.07l-96.49 114.97c-5.75,7.31 -11.49,13.56 -17.27,20.7l-8.45 10.13c-19.3,22.13 -37.26,45.27 -56.55,67.39 -1.77,2.03 -2.81,3.54 -4.62,5.44 -3.23,3.39 -5.79,6.92 -8.89,10.48l-30.37 36.25c-18.08,23.1 -38.46,44.28 -56.55,67.39l-78.85 93.89c-1.53,1.75 -2.68,3.21 -4.23,5.06l-74.16 88.51c-11.21,14.25 -23.34,27.7 -35.06,41.62l-86.82 103.74c-3.23,3.63 -5.7,6.86 -8.9,10.46 -18.2,20.44 -34.46,42.29 -52.67,62.74l-17.38 20.58c-1.53,1.79 -2.82,3.35 -4.22,5.08l-21.82 26.2c-1.55,1.85 -2.7,3.31 -4.23,5.06l-43.56 51.73c-1.49,1.92 -2.88,3.49 -4.53,5.53 -1.42,1.74 -2.68,3.23 -4.22,5.07l-48.12 57.23c-1.54,1.97 -2.66,3.17 -4.21,5.09l-13.47 15.96c-11.09,11.64 -32.5,38.88 -43.42,51.86l-21.63 25.63c-19.4,22.25 -37.89,45.2 -56.9,67.8l-17.61 21.12c-1.48,1.87 -2.74,3.31 -4.23,5.09 -1.06,1.26 -5.4,4.53 -0.87,4.53l556.17 0c2.36,0 10.76,-11.11 12.72,-13.61 14.28,-18.24 29.88,-35.76 44.84,-53.54 1.55,-1.84 2.7,-3.3 4.23,-5.06 18.19,-20.86 35.03,-42.88 53.43,-63.54l85.94 -102.29c1.54,-1.84 2.8,-3.33 4.22,-5.07l16.26 -19.37c2.85,-3.52 5.75,-6.74 8.42,-10.18 13.01,-16.74 27.53,-32.31 40.94,-48.91l8.19 -9.63c10.41,-13.26 22.13,-25.44 32.53,-38.73 2.74,-3.5 5.33,-6.33 8.08,-9.73l41.36 -49.27c2.94,-3.29 5.27,-6.35 8.15,-9.67l114.92 -136.82c13.6,-16.79 27.88,-32.3 41.28,-49.35 2.76,-3.51 5.31,-6.32 8.08,-9.74 1.46,-1.81 2.54,-2.66 3.99,-4.53l20.46 -24.46c12.69,-16.22 27.55,-32.95 40.97,-48.89l24.74 -29.48c2.94,-3.29 5.27,-6.35 8.15,-9.67 27.73,-31.82 54.78,-65.27 82.04,-97.66 1.55,-1.84 2.81,-3.33 4.22,-5.08 1.56,-1.92 2.68,-3.12 4.21,-5.08 2.77,-3.54 5.45,-6.25 8.19,-9.63l24.68 -29.55c10.51,-13.53 22.2,-25.61 32.86,-39.17 2.76,-3.51 5.31,-6.32 8.08,-9.74l36.41 -43.37c1.4,-1.73 2.69,-3.29 4.21,-5.09l16.63 -19.77c3.04,-3.42 5.2,-6.13 8.17,-9.65l16.27 -19.37c13.79,-16.42 27.13,-33.23 41.38,-49.24 11.33,-12.71 21.71,-26.29 32.91,-39.13l65.67 -78.41c5.11,-6.58 11.13,-12.75 16.26,-19.36 10.39,-13.36 22.36,-25.81 32.87,-39.18 2.75,-3.51 5.32,-6.32 8.08,-9.73l65.42 -77.89c21.94,-26.11 43.36,-52.6 65.77,-78.3 13.41,-15.39 28.76,-33.25 41.33,-49.3 18.95,-24.22 46.5,-53.9 65.72,-78.35 2.76,-3.51 5.31,-6.32 8.08,-9.74l53.03 -63.17c1.52,-1.81 2.73,-3.38 4.22,-5.06l49.18 -58.49c5.85,-6.57 10.79,-13.2 16.64,-19.77 11.33,-12.72 21.57,-26.39 32.92,-39.12l28.59 -34.16c12.07,-14.9 25.35,-29.18 37.07,-44.26 15.58,-20.05 33.43,-38.48 49.13,-58.54l65.34 -77.96c2.94,-3.37 5.24,-6.18 8.16,-9.66l24.74 -29.47c18.97,-21.3 38.96,-46.38 57.66,-68.61l40.96 -48.89c5.5,-6.99 11.31,-13 16.6,-19.81 15.58,-20.05 33.43,-38.48 49.13,-58.54l28.22 -33.74c1.4,-1.73 2.69,-3.29 4.21,-5.09l12.41 -14.7c10.81,-12.85 35.78,-43.93 45.26,-53.89 11.24,-11.79 21.97,-26.59 32.9,-39.13l24.8 -29.43c1.48,-1.66 2.33,-2.9 3.87,-4.66l20.5 -24.42c12.6,-14.98 30.17,-35.03 41.29,-49.34 1.27,-1.63 32.53,-37.53 32.53,-39.5l0 -900.87 -429.13 0 0 742.85z"/>
   <path class="fil0 str0" d="M3702.27 414.85l-429.13 0 0 898.54c0,6.98 -0.06,13.97 0.03,20.94 0.1,8.28 -1.66,7.21 -7.54,14.15 -3.36,3.97 -6.21,7.53 -9.42,11.5l-9.98 11.7c-1.36,1.46 -1.32,1.66 -2.41,3.02l-60.77 72.46c-1.8,2.14 -3.15,3.81 -4.98,5.86l-78.44 93.53c-1.74,2.25 -3.02,3.37 -4.98,5.87l-58.71 69.87c-1.66,1.91 -3.32,3.88 -4.92,5.92 -17.2,21.89 -36.18,42.47 -53.67,64.07l-14.59 17.17c-3.51,4.14 -6.27,7.76 -9.77,11.92 -6.64,7.9 -13.05,15 -19.45,23.15l-58.72 69.87c-1.76,2.02 -2.84,3.37 -4.65,5.41l-93.32 111.18c-11.51,13.6 -22.32,27.76 -34.13,41.01l-83.17 98.86c-6.44,7.94 -12.69,15.44 -19.43,23.17 -1.57,1.8 -3.13,3.69 -4.58,5.49 -17.63,21.76 -36.38,42.73 -54.01,64.51l-19.47 23.13c-15.47,19.89 -33.4,38.15 -48.81,58.09l-36.63 43.92c-1.02,1.2 -1.62,1.59 -2.64,2.79 -3.5,4.14 -6.26,7.76 -9.76,11.92l-68.26 81.25c-1.6,2.03 -3.26,4.01 -4.92,5.92l-219.92 261.88c-6.67,7.93 -12.55,15.5 -19.4,23.2 -14.24,15.99 -34.33,40.96 -48.76,58.14l-68.58 81.69c-1.56,1.79 -3.14,3.7 -4.59,5.49l-58.58 70c-16.84,18.9 -32.16,39 -48.8,58.09l-151.67 180.64c-17.21,21.9 -36.16,42.44 -53.67,64.07l-46.69 55.55c-1.1,1.36 -1.06,1.56 -2.41,3.02l-14.52 17.23c-1.74,2.26 -3.03,3.37 -4.98,5.87 -1.59,2.03 -3.27,4.03 -4.92,5.92 -3.32,3.81 -6.45,7.47 -9.58,11.34l-19.43 23.18c-1.22,1.41 -1.21,1.66 -2.38,3.04l-46.78 55.46c-13.1,15.57 -25.67,31.66 -39.17,46.82 -1.83,2.05 -3.19,3.72 -4.98,5.86l-126.83 151.25c-1.11,1.41 -1.45,1.61 -2.53,2.89l-109.91 131c-3.37,4.29 -6.36,7.66 -9.86,11.83 -3.37,4 -6.22,7.32 -9.59,11.32 -1.76,2.09 -3.37,4 -4.89,5.96 -1.74,2.25 -3.02,3.36 -4.97,5.86 -1.59,2.03 -3.27,4.03 -4.92,5.93l-14.9 17.64c-1.49,1.93 -2.88,3.5 -4.53,5.53l-14.94 17.6c-3.29,4.06 -6.33,7.94 -9.79,11.9 -2.95,3.38 -8.27,7.75 -9.46,12.22l5.77 0 5.77 0 5.77 0 5.78 0 5.77 0 5.77 0 5.78 0 5.77 0 5.77 0 5.78 0 5.77 0 5.77 0 5.78 0 5.77 0 5.77 0 5.78 0 5.77 0 5.77 0 5.78 0 5.77 0 5.77 0 5.78 0 5.77 0 5.77 0 5.78 0 5.77 0 5.77 0 5.78 0 5.77 0 5.77 0 5.77 0 5.78 0 5.77 0 5.78 0 5.77 0 5.77 0 5.77 0 5.78 0 5.77 0 5.77 0 5.78 0 5.77 0 5.77 0 5.78 0 5.77 0 5.77 0 5.78 0 5.77 0 5.77 0 5.78 0 5.77 0 5.77 0 5.78 0 5.77 0 5.77 0 5.78 0 5.77 0 5.77 0 5.77 0 5.78 0 5.77 0 5.77 0 5.78 0 5.77 0 2.88 0c58.94,-0.01 118.01,-0.4 176.93,0l6.19 0c7.05,-0.37 6.95,-3.73 11.72,-9.09 21.2,-23.81 42.64,-51.19 63.55,-75.88l36.77 -43.79c14.49,-16.25 27.71,-33.74 42.19,-49.99l18.3 -21.98c12.9,-15.97 26.94,-31.03 39.28,-47.48 1.76,-2.36 3.31,-4.12 5.23,-6.39l15.91 -18.94c17.17,-21.2 35.51,-41.54 52.68,-62.74 3.51,-4.35 7.1,-8.12 10.62,-12.62 1.95,-2.5 3.24,-3.61 4.98,-5.87 1.54,-1.98 3.47,-4.33 5.25,-6.37l15.9 -18.95c1.92,-2.28 3.42,-4.05 5.36,-6.26 1.77,-2.04 3.71,-4.39 5.24,-6.37 1.74,-2.26 3.39,-3.91 5.32,-6.31l210.63 -251.03c10.81,-12.4 20.83,-25.72 31.75,-37.97l31.49 -37.44c12.57,-15.99 26.53,-30.9 39.29,-46.7l8.17 -9.64c1.95,-2.32 3.33,-4 5.22,-6.4l26.18 -31.15c16.23,-18.63 31.45,-38.27 47.68,-56.89l31.48 -37.45c11,-14.05 22.81,-27.19 34.29,-40.85l197.56 -235.44c3.79,-4.25 6.8,-8.36 10.5,-12.74l36.77 -43.79c2.03,-2.27 3.39,-3.95 5.41,-6.21l21.22 -25.26c9.09,-11.22 22.07,-27.39 31.45,-37.48l128.96 -153.78c1.32,-1.52 1.41,-1.96 2.74,-3.45 2.03,-2.27 3.39,-3.95 5.4,-6.22 3.79,-4.25 6.8,-8.35 10.51,-12.73l179.27 -213.45c15.98,-17.94 31.36,-37.76 46.91,-56.12l26.64 -31.45c1.95,-2.32 3.33,-4 5.22,-6.4 1.11,-1.42 1.45,-1.61 2.53,-2.9l87.23 -104.09c15.72,-18.67 32.11,-36.73 47.01,-56.01 1.74,-2.25 3.38,-3.91 5.32,-6.3 15.4,-19.08 32.32,-37.1 47.36,-56.44l21.14 -25.33c12.38,-14.61 24.39,-29.85 37.15,-44.19l26.25 -31.07c1.87,-2.31 3.33,-4.1 5.2,-6.42 17.17,-21.2 35.51,-41.54 52.67,-62.74 3.52,-4.34 7.1,-8.11 10.63,-12.61 13.41,-17.15 28.38,-33.21 42.05,-50.13 3.51,-4.35 7.08,-8.11 10.62,-12.62 1.87,-2.37 3.28,-4.13 5.21,-6.41l36.8 -43.75c1.37,-1.5 2.1,-3 2.47,-4.76l0 -16.01 0 -1062.76z"/>
   <path class="fil0 str0" d="M531.04 414.85l92.96 110.77c8.77,11.29 18.71,21.61 27.55,32.87 1.87,2.37 3.29,4.13 5.21,6.41l41.43 49.2c1.32,1.52 1.48,1.66 2.82,3.37l49.44 59c3.84,4.14 7.43,8.51 10.98,13.04 11.97,15.23 42.46,50.49 55.2,65.63l21.82 26.21c3.65,4.51 7.42,8.45 11.06,12.95l21.82 26.21c2.04,2.41 3.69,4.26 5.72,6.67l71.33 85.14c1.94,2.22 3.44,3.98 5.36,6.27l77.03 91.83c2.09,2.59 3.54,4.05 5.65,6.74l33.17 39.65c3.84,4.13 7.42,8.5 10.98,13.03 3.72,4.73 7.21,8.41 11.06,12.95 3.84,4.54 6.94,8.73 10.87,13.14 1.26,1.41 1.35,1.7 2.41,3.01l173.63 206.71c3.43,4.44 7.34,8.6 10.95,13.06 10.7,13.22 22.32,25.75 32.87,39.17l13.39 16.04c1.11,1.38 1.67,1.79 2.88,3.32 10.55,13.42 22.47,25.73 32.86,39.18 8.72,11.28 18.72,21.62 27.56,32.86l22.21 26.58c2.02,2.26 3.38,3.94 5.41,6.22 12.25,13.74 23.5,28.7 35.62,42.61 1.32,1.52 1.42,1.96 2.75,3.45l88.04 104.84c3.66,4.65 7.24,8.43 11.05,12.96l44.15 52.67c3.85,4.57 7.02,8.64 10.91,13.1l13.52 15.92c6.71,7.53 12.41,15.9 19.38,23.22 1.4,1.47 1.21,1.37 2.46,2.96l77.02 91.85c1.11,1.37 1.67,1.78 2.88,3.32 1.93,2.45 3.6,4.54 5.58,6.81l44.14 52.68c11.37,12.76 21.56,26.37 32.92,39.12 2.01,2.27 3.37,3.95 5.4,6.22l22.17 26.63c1.85,2.28 3.73,4.42 5.71,6.69l21.84 26.18c14.06,17.87 29.69,34.47 43.94,52.11 3.08,3.81 18.68,23.76 22.35,26.45 2.13,-1.43 3.12,-2.65 4.65,-4.65l43.48 -51.79c1.66,-2.04 3.04,-3.6 4.54,-5.53l17.65 -21.08c12.48,-14.32 35.81,-41.57 47.75,-56.82l74.61 -88.83c1.63,-1.76 2.6,-3.17 4.24,-5.06l78.73 -94.01c0.98,-1.21 3.79,-4.6 4.76,-5.31 -2.2,-3.28 -5.55,-7.15 -8.32,-10.27l-35.3 -42.16c-1.55,-1.85 -2.7,-3.3 -4.24,-5.06l-22.4 -26.4c-1.53,-1.8 -2.82,-3.35 -4.21,-5.08l-74.5 -88.95c-3.08,-3.67 -5.7,-6.96 -8.85,-10.51 -13.29,-14.92 -32.05,-39.95 -44.16,-52.66 -3.23,-3.39 -5.78,-6.92 -8.89,-10.48l-13.1 -15.56c-11,-13.58 -23.57,-29.49 -35.33,-42.13l-34.87 -41.82c-1.82,-2.03 -2.9,-3.39 -4.66,-5.41l-17.75 -20.97c-1.53,-1.8 -2.82,-3.36 -4.22,-5.08l-44.15 -52.68c-1.65,-2.03 -3.05,-3.6 -4.54,-5.53 -15.88,-20.55 -36.59,-42.31 -53,-63.19l-59.08 -70.28c-1.2,-1.43 -1.11,-1.61 -2.38,-3.04l-17.8 -20.93c-1.63,-1.75 -2.6,-3.17 -4.24,-5.05 -1.57,-1.8 -3.13,-3.69 -4.59,-5.49l-44.15 -52.67c-18.46,-22.86 -38.82,-44.76 -56.88,-67.83l-13.39 -16.05c-1.41,-1.74 -2.67,-3.23 -4.22,-5.07l-30.86 -36.54c-3.01,-3.72 -5.71,-6.76 -8.73,-10.62 -17.85,-22.85 -42.64,-49.86 -61.54,-73.25l-66.12 -78.73c-1.56,-1.79 -3.13,-3.69 -4.58,-5.49 -3,-3.71 -5.85,-6.67 -8.86,-10.51l-123.3 -147.03c-14.14,-14.86 -25.86,-31.93 -39.52,-47.24 -11.64,-13.06 -28.92,-33.14 -39.68,-47.07 -1.49,-1.93 -2.51,-2.94 -4.2,-5.09l-75.35 -89.65c-7.46,-8.88 -29.81,-34.48 -35.09,-42.37l-560.82 0z"/>
   <path class="fil0 str0" d="M3702.27 3818.46l-0.05 -1046.43c-0.48,-2.63 -1.7,-2.81 -3.49,-5.04 -2.78,-3.46 -5.05,-5.89 -7.85,-9.19l-259.61 -309.73c-2.4,-2.97 -5.02,-5.55 -7.53,-8.73l-130.01 -155.04c-2.51,-3.18 -5.08,-5.84 -7.42,-8.85l-77.01 -91.85c-2.32,-2.94 -5.07,-6.75 -8.2,-8.85l-34.67 42.01c-7.51,8.42 -14.01,17.33 -21.68,25.58l-34.87 41.81c-1.82,2.04 -2.89,3.39 -4.65,5.42 -16.37,18.78 -31.66,38.54 -48.03,57.32l-17.39 20.57c-16.5,18.93 -31.72,38.93 -48.42,57.69l-43.41 51.87c-3.11,3.56 -5.66,7.09 -8.89,10.48 -4.98,5.23 -13.71,15.27 -17.62,21.11 3.25,4.84 7.74,9.38 11.51,14.05 1.98,2.45 3.96,4.6 6.07,7.1 2.17,2.58 3.73,4.69 5.9,7.27 13.32,15.82 34.5,39.85 47.46,56.34 7.77,9.89 15.86,18.57 23.67,28.22 7.34,9.06 39.21,47.92 47.34,56.46 8.4,8.83 15.64,19.07 23.64,28.25 8.21,9.42 15.57,18.64 23.66,28.25 31.81,37.81 62.97,74.99 94.79,112.8 19.73,23.44 38.82,47.35 58.94,70.42 2.22,2.55 3.91,4.47 6.16,7.01 3,3.38 2.58,4.71 2.54,10.63 -0.13,17.28 -0.01,34.61 -0.01,51.9 0,277.05 0,554.1 0,831.15l429.13 0z"/>
   <path class="fil0 str0" d="M2255.31 1714.64c2.57,-1.72 2.48,-2.58 4.47,-4.83l231.96 -276.18c5.99,-6.87 39.87,-46.71 43.98,-52.85 -4.21,-4.84 -8.39,-9.52 -12.5,-14.6 -4.27,-5.28 -8.37,-9.85 -12.61,-15.28l-56.89 -67.83c-1.98,-2.45 -4.31,-4.98 -6.48,-7.46 -2.26,-2.59 -4,-4.99 -6.26,-7.68 -2.27,-2.69 -4.27,-4.8 -6.5,-7.44 -2.16,-2.55 -3.74,-4.71 -5.9,-7.28l-73.17 -87.16c-1.38,-1.59 -1.87,-2.22 -3.16,-3.81 -2.09,-2.58 -4.33,-4.95 -6.42,-7.53 -1.29,-1.59 -1.78,-2.23 -3.16,-3.81l-104.23 -124.28c-2.21,-2.54 -4.41,-5.07 -6.37,-7.58 -3.91,-5.03 -8.48,-9.68 -12.39,-14.71l-19.12 -22.71c-2.26,-2.68 -4.01,-5.08 -6.27,-7.67l-50.97 -60.58c-2.16,-2.76 -4.05,-5.06 -6.32,-7.62l-119.82 -142.77c-14.26,-18.21 -29.95,-35.15 -44.49,-53.11l-44.49 -53.11c-8.28,-9.77 -30.45,-37.12 -37.92,-44.96l-120.47 -143.67c-2.21,-2.54 -4.42,-5.06 -6.37,-7.58 -9.19,-11.82 -30.55,-34.63 -37.96,-45.7l-560.81 0c7.16,10.7 31.94,37.54 42.27,50.68l25.36 30.42c1.55,1.84 2.7,3.3 4.23,5.06l80.98 96.41c2.95,3.52 5.46,6.73 8.48,10.11l51.25 61.06c17.65,22.46 36.81,43.78 55.2,65.64l21.49 25.77c1.54,1.97 2.65,3.16 4.21,5.08l12.74 15.15c2.95,3.51 5.47,6.72 8.48,10.11l230.44 274.6c3.14,3.3 5.46,6.64 8.51,10.08 3.02,3.38 5.53,6.59 8.48,10.11l50.83 60.71c1.56,1.85 2.71,3.3 4.24,5.06l38.23 45.42c2.88,3.57 5.66,6.53 8.52,10.07 10.1,12.47 42,51.44 51.21,61.11 1.81,1.9 2.48,3.05 4.26,5.04l8.48 10.11c1.54,1.83 2.81,3.33 4.22,5.07l80.98 96.4c1.66,1.97 2.99,3.52 4.56,5.52l50.88 60.66c3.07,3.45 5.46,6.62 8.49,10.1l34.24 40.89c16.36,20.81 34.28,40.73 51.33,60.99l33.78 40.58c1.7,2 2.62,2.9 4.31,4.99l12.7 15.19c9.06,9.75 17.32,20.45 25.9,30.64 1.55,1.85 2.81,3.33 4.22,5.08 1.56,1.92 2.66,3.12 4.21,5.09 1.7,2.15 2.71,3.16 4.2,5.09 2.78,3.59 35.84,43.76 38.73,45.7z"/>
   <path class="fil0 str0" d="M2604.66 2886.61l47.92 56.66c11.34,14.05 29.44,34.06 39.61,47.14 16.01,20.61 40.08,46.41 56.22,66.95l39.98 47.54c3.31,3.96 2.17,8.69 2.17,15.64l0 682.43c0,7.33 -1.44,15.49 2.33,15.49l426.8 0 0 -866c0,-2.07 -7.84,-10.58 -9.62,-12.84l-10.7 -12.55c-1.27,-1.42 -1.17,-1.6 -2.38,-3.04l-28.62 -34.12c-2.01,-2.26 -3.38,-3.94 -5.4,-6.21 -14.4,-16.16 -32.46,-39.9 -47.27,-56.53 -1.83,-2.05 -3.19,-3.73 -4.98,-5.86l-5.34 -6.29c-3.51,-4.49 -6.88,-8.44 -10.57,-12.67 -17.09,-19.6 -35.29,-43.23 -52.3,-62.34 -3.79,-4.25 -6.79,-8.35 -10.5,-12.73l-41.8 -49.61c-3.74,-4.2 -7.02,-8.36 -10.53,-12.7l-65.07 -77.46c-1.11,-1.37 -1.67,-1.79 -2.88,-3.32l-26.66 -31.43c-2.67,1.79 -6.34,6.95 -8.76,9.83l-26.55 31.55c-2.89,3.7 -5.61,6.37 -8.52,10.07l-13.05 15.61c-1.56,1.99 -2.91,3.55 -4.56,5.51l-17.37 20.58c-17.87,20.07 -38.22,46.35 -56.92,67.79l-39.54 47.23c-3.06,3.44 -5.46,6.62 -8.49,10.1l-96.65 115.58z"/>
  </g>
  <path class="fil1" d="M3702.28 3818.47l-0.05 -1046.43c-0.48,-2.63 -1.7,-2.81 -3.49,-5.04 -2.78,-3.46 -5.05,-5.89 -7.85,-9.19l-259.61 -309.73c-2.4,-2.97 -5.02,-5.55 -7.53,-8.73l-130.01 -155.04c-2.51,-3.18 -5.08,-5.84 -7.42,-8.85l-77.01 -91.85c-2.32,-2.94 -5.07,-6.75 -8.2,-8.85l-34.67 42.01c-7.51,8.42 -14.01,17.33 -21.68,25.58l-34.87 41.81c-1.82,2.04 -2.89,3.39 -4.65,5.42 -16.37,18.78 -31.66,38.54 -48.03,57.32l-17.39 20.57c-16.5,18.93 -31.72,38.93 -48.42,57.69l-43.41 51.87c-3.11,3.56 -5.66,7.09 -8.89,10.48 -4.98,5.23 -13.71,15.27 -17.62,21.11 3.25,4.84 7.74,9.38 11.51,14.05 1.98,2.45 3.96,4.6 6.07,7.1 2.17,2.58 3.73,4.69 5.9,7.27 13.32,15.82 34.5,39.85 47.46,56.34 7.77,9.89 15.86,18.57 23.67,28.22 7.34,9.06 39.21,47.92 47.34,56.46 8.4,8.83 15.64,19.07 23.64,28.25 8.21,9.42 15.57,18.64 23.66,28.25 31.81,37.81 62.97,74.99 94.79,112.8 19.73,23.44 38.82,47.35 58.94,70.42 2.22,2.55 3.91,4.47 6.16,7.01 3,3.38 2.58,4.71 2.54,10.63 -0.13,17.28 -0.01,34.61 -0.01,51.9 0,277.05 0,554.1 0,831.15l429.13 0z"/>
  <path class="fil1" d="M2255.32 1714.65c2.57,-1.72 2.48,-2.58 4.47,-4.83l231.96 -276.18c5.99,-6.87 39.87,-46.71 43.98,-52.85 -4.21,-4.84 -8.39,-9.52 -12.5,-14.6 -4.27,-5.28 -8.37,-9.85 -12.61,-15.28l-56.89 -67.83c-1.98,-2.45 -4.31,-4.98 -6.48,-7.46 -2.26,-2.59 -4,-4.99 -6.26,-7.68 -2.27,-2.69 -4.27,-4.8 -6.5,-7.44 -2.16,-2.55 -3.74,-4.71 -5.9,-7.28l-73.17 -87.16c-1.38,-1.59 -1.87,-2.22 -3.16,-3.81 -2.09,-2.58 -4.33,-4.95 -6.42,-7.53 -1.29,-1.59 -1.78,-2.23 -3.16,-3.81l-104.23 -124.28c-2.21,-2.54 -4.41,-5.07 -6.37,-7.58 -3.91,-5.03 -8.48,-9.68 -12.39,-14.71l-19.12 -22.71c-2.26,-2.68 -4.01,-5.08 -6.27,-7.67l-50.97 -60.58c-2.16,-2.76 -4.05,-5.06 -6.32,-7.62l-119.82 -142.77c-14.26,-18.21 -29.95,-35.15 -44.49,-53.11l-44.49 -53.11c-8.28,-9.77 -30.45,-37.12 -37.92,-44.96l-120.47 -143.67c-2.21,-2.54 -4.42,-5.06 -6.37,-7.58 -9.19,-11.82 -30.55,-34.63 -37.96,-45.7l-560.81 0c7.16,10.7 31.94,37.54 42.27,50.68l25.36 30.42c1.55,1.84 2.7,3.3 4.23,5.06l80.98 96.41c2.95,3.52 5.46,6.73 8.48,10.11l51.25 61.06c17.65,22.46 36.81,43.78 55.2,65.64l21.49 25.77c1.54,1.97 2.65,3.16 4.21,5.08l12.74 15.15c2.95,3.51 5.47,6.72 8.48,10.11l230.44 274.6c3.14,3.3 5.46,6.64 8.51,10.08 3.02,3.38 5.53,6.59 8.48,10.11l50.83 60.71c1.56,1.85 2.71,3.3 4.24,5.06l38.23 45.42c2.88,3.57 5.66,6.53 8.52,10.07 10.1,12.47 42,51.44 51.21,61.11 1.81,1.9 2.48,3.05 4.26,5.04l8.48 10.11c1.54,1.83 2.81,3.33 4.22,5.07l80.98 96.4c1.66,1.97 2.99,3.52 4.56,5.52l50.88 60.66c3.07,3.45 5.46,6.62 8.49,10.1l34.24 40.89c16.36,20.81 34.28,40.73 51.33,60.99l33.78 40.58c1.7,2 2.62,2.9 4.31,4.99l12.7 15.19c9.06,9.75 17.32,20.45 25.9,30.64 1.55,1.85 2.81,3.33 4.22,5.08 1.56,1.92 2.66,3.12 4.21,5.09 1.7,2.15 2.71,3.16 4.2,5.09 2.78,3.59 35.84,43.76 38.73,45.7z"/>
 </g>
</svg>
