<?xml version="1.0" encoding="UTF-8"?>
<!DOCTYPE svg PUBLIC "-//W3C//DTD SVG 1.1//EN" "http://www.w3.org/Graphics/SVG/1.1/DTD/svg11.dtd">
<!-- Creator: CorelDRAW 2021.5 -->
<svg xmlns="http://www.w3.org/2000/svg" xml:space="preserve" width="31.9785mm" height="34.2055mm" version="1.1" style="shape-rendering:geometricPrecision; text-rendering:geometricPrecision; image-rendering:optimizeQuality; fill-rule:evenodd; clip-rule:evenodd"
viewBox="0 0 3188.19 3410.22"
 xmlns:xlink="http://www.w3.org/1999/xlink"
 xmlns:xodm="http://www.corel.com/coreldraw/odm/2003">
 <defs>
  <style type="text/css">
   <![CDATA[
    .str0 {stroke:#A1A1A1;stroke-width:16.88;stroke-miterlimit:22.9256}
    .fil0 {fill:none}
    .fil1 {fill:#A1A1A1;fill-opacity:0.109804}
   ]]>
  </style>
 </defs>
 <g id="Layer_x0020_1">
  <metadata id="CorelCorpID_0Corel-Layer"/>
  <g id="_1951377301616">
   <path class="fil0 str0" d="M2270.79 749.05c0,4.06 -4.95,8.06 -7.48,11.05 -1.55,1.83 -2.81,3.33 -4.21,5.06l-195.52 233.09c-11.58,13.79 -23.87,27.3 -34.95,41.49l-34.88 41.56c-1.64,1.75 -2.59,3.17 -4.23,5.04 -1.54,1.75 -2.68,3.2 -4.23,5.04l-17.23 20.61c-1.5,1.92 -2.5,2.93 -4.19,5.08l-143.84 171.23c-1.55,1.83 -2.8,3.32 -4.22,5.06 -1.55,1.91 -2.65,3.1 -4.2,5.06l-17.56 21.06c-1.55,1.84 -2.69,3.29 -4.22,5.04 -13.61,15.6 -31.02,35.74 -43.75,52.01l-143.08 170.46c-3.11,3.71 -5.88,6.82 -8.84,10.47 -22.63,27.96 -46.68,54.87 -69.28,82.86l-17.68 20.93c-13.62,14.29 -36.96,45.11 -52.14,62.16l-17.67 20.94c-5.76,7.12 -11.49,13.34 -17.21,20.64l-38.82 46.13c-1.65,1.95 -2.99,3.51 -4.55,5.49 -2.97,3.8 -6,6.85 -8.82,10.48 -2.66,3.43 -5.54,6.65 -8.38,10.15 -2.95,3.65 -5.72,6.76 -8.84,10.47l-60.97 72.63c-3.21,3.61 -5.57,6.89 -8.87,10.44 -1.64,1.74 -2.59,3.16 -4.23,5.03l-21.45 25.66c-11.01,14.16 -23.12,28 -34.92,41.52 -1.53,1.75 -2.67,3.21 -4.23,5.04l-30.6 36.59c-3.07,3.67 -5.68,6.95 -8.82,10.48 -20.88,23.45 -39.98,48.55 -60.61,72.22l-39.03 46.69c-1.81,2.03 -2.89,3.38 -4.65,5.4 -6.04,6.93 -11.22,13.63 -17.34,20.5l-69.33 82.81c-2.65,3.42 -5.9,6.68 -8.49,10.04l-96.2 114.62c-5.73,7.29 -11.46,13.52 -17.22,20.64l-8.42 10.1c-19.24,22.06 -37.15,45.13 -56.38,67.19 -1.76,2.02 -2.8,3.53 -4.61,5.42 -3.22,3.38 -5.77,6.9 -8.86,10.45l-30.28 36.14c-18.03,23.03 -38.34,44.15 -56.38,67.19l-78.61 93.61c-1.53,1.74 -2.67,3.2 -4.22,5.04l-73.94 88.24c-11.18,14.21 -23.27,27.62 -34.95,41.49l-86.56 103.43c-3.22,3.62 -5.68,6.84 -8.87,10.43 -18.15,20.38 -34.36,42.16 -52.51,62.55l-17.33 20.52c-1.53,1.78 -2.81,3.34 -4.21,5.06l-21.75 26.12c-1.55,1.84 -2.69,3.3 -4.22,5.04l-43.43 51.57c-1.49,1.91 -2.87,3.48 -4.52,5.51 -1.42,1.73 -2.67,3.22 -4.21,5.05l-47.97 57.06c-1.54,1.96 -2.65,3.16 -4.2,5.07l-13.43 15.91c-11.06,11.6 -32.4,38.76 -43.29,51.7l-21.56 25.55c-19.34,22.18 -37.78,45.06 -56.73,67.6l-17.56 21.06c-1.48,1.86 -2.73,3.3 -4.22,5.07 -1.06,1.26 -5.38,4.52 -0.87,4.52l554.49 0c2.35,0 10.73,-11.08 12.68,-13.57 14.24,-18.18 29.79,-35.65 44.7,-53.38 1.55,-1.83 2.69,-3.29 4.22,-5.04 18.14,-20.8 34.92,-42.75 53.27,-63.35l85.68 -101.98c1.54,-1.83 2.79,-3.32 4.21,-5.05l16.21 -19.31c2.84,-3.51 5.73,-6.72 8.39,-10.15 12.97,-16.69 27.45,-32.21 40.82,-48.76l8.17 -9.6c10.38,-13.22 22.06,-25.36 32.43,-38.61 2.73,-3.49 5.31,-6.31 8.06,-9.7l41.24 -49.12c2.93,-3.28 5.25,-6.33 8.13,-9.64l114.57 -136.41c13.56,-16.74 27.8,-32.2 41.16,-49.2 2.75,-3.5 5.29,-6.3 8.06,-9.71 1.46,-1.8 2.53,-2.65 3.98,-4.52l20.4 -24.39c12.65,-16.17 27.47,-32.85 40.85,-48.74l24.67 -29.39c2.93,-3.28 5.25,-6.33 8.13,-9.64 27.65,-31.72 54.61,-65.07 81.79,-97.36 1.55,-1.83 2.8,-3.32 4.21,-5.06 1.56,-1.91 2.67,-3.11 4.2,-5.06 2.76,-3.53 5.43,-6.23 8.17,-9.6l24.61 -29.46c10.48,-13.49 22.13,-25.53 32.76,-39.05 2.75,-3.5 5.29,-6.3 8.06,-9.71l36.3 -43.24c1.4,-1.72 2.68,-3.28 4.2,-5.07l16.58 -19.71c3.03,-3.41 5.18,-6.11 8.15,-9.62l16.22 -19.31c13.75,-16.37 27.05,-33.13 41.25,-49.09 11.3,-12.67 21.64,-26.21 32.81,-39.01l65.47 -78.17c5.09,-6.56 11.1,-12.71 16.21,-19.3 10.36,-13.32 22.29,-25.73 32.77,-39.06 2.74,-3.5 5.3,-6.3 8.06,-9.7l65.22 -77.65c21.87,-26.03 43.23,-52.44 65.57,-78.06 13.37,-15.34 28.67,-33.15 41.21,-49.15 18.89,-24.15 46.36,-53.74 65.52,-78.11 2.75,-3.5 5.29,-6.3 8.06,-9.71l52.87 -62.98c1.52,-1.8 2.72,-3.37 4.21,-5.04l49.03 -58.31c5.83,-6.55 10.76,-13.16 16.59,-19.71 11.3,-12.68 21.5,-26.31 32.82,-39l28.5 -34.06c12.03,-14.85 25.27,-29.09 36.96,-44.13 15.53,-19.99 33.33,-38.36 48.98,-58.36l65.14 -77.72c2.93,-3.36 5.22,-6.16 8.14,-9.63l24.67 -29.38c18.91,-21.24 38.84,-46.24 57.49,-68.4l40.84 -48.74c5.48,-6.97 11.28,-12.96 16.55,-19.75 15.53,-19.99 33.33,-38.36 48.98,-58.36l28.13 -33.64c1.4,-1.72 2.68,-3.28 4.2,-5.07l12.37 -14.66c10.78,-12.81 35.67,-43.8 45.12,-53.73 11.21,-11.75 21.9,-26.51 32.8,-39.01l24.73 -29.34c1.48,-1.65 2.32,-2.89 3.86,-4.65l20.44 -24.35c12.56,-14.93 30.08,-34.92 41.17,-49.19 1.27,-1.63 32.43,-37.42 32.43,-39.38l0 -898.15 -427.83 0 0 740.61z"/>
   <path class="fil0 str0" d="M3179.74 8.44l-427.83 0 0 895.83c0,6.96 -0.06,13.93 0.03,20.88 0.1,8.25 -1.65,7.19 -7.52,14.11 -3.35,3.96 -6.19,7.51 -9.39,11.47l-9.95 11.66c-1.36,1.46 -1.32,1.65 -2.4,3.01l-60.59 72.24c-1.79,2.13 -3.14,3.8 -4.96,5.84l-78.2 93.25c-1.73,2.24 -3.01,3.36 -4.96,5.85l-58.53 69.66c-1.65,1.9 -3.31,3.87 -4.91,5.9 -17.15,21.82 -36.07,42.34 -53.51,63.88l-14.55 17.12c-3.5,4.13 -6.25,7.74 -9.74,11.88 -6.62,7.88 -13.01,14.95 -19.39,23.08l-58.54 69.66c-1.75,2.01 -2.83,3.36 -4.64,5.39l-93.04 110.84c-11.48,13.56 -22.25,27.68 -34.03,40.89l-82.92 98.56c-6.42,7.92 -12.65,15.39 -19.37,23.1 -1.57,1.79 -3.12,3.68 -4.57,5.47 -17.58,21.69 -36.27,42.6 -53.85,64.32l-19.41 23.06c-15.42,19.83 -33.3,38.03 -48.66,57.91l-36.52 43.79c-1.02,1.2 -1.62,1.59 -2.63,2.78 -3.49,4.13 -6.24,7.74 -9.73,11.88l-68.05 81c-1.6,2.02 -3.25,4 -4.91,5.9l-219.26 261.09c-6.65,7.91 -12.51,15.45 -19.34,23.13 -14.2,15.94 -34.23,40.84 -48.61,57.96l-68.37 81.44c-1.56,1.78 -3.13,3.69 -4.58,5.47l-58.4 69.79c-16.79,18.84 -32.06,38.88 -48.65,57.91l-151.21 180.09c-17.16,21.83 -36.05,42.31 -53.51,63.88l-46.55 55.38c-1.1,1.36 -1.06,1.56 -2.4,3.01l-14.48 17.18c-1.73,2.25 -3.02,3.36 -4.96,5.85 -1.59,2.02 -3.26,4.02 -4.91,5.9 -3.31,3.8 -6.43,7.45 -9.55,11.31l-19.37 23.11c-1.22,1.41 -1.21,1.65 -2.37,3.03l-46.64 55.29c-13.06,15.52 -25.59,31.56 -39.05,46.68 -1.82,2.04 -3.18,3.71 -4.96,5.84l-126.45 150.79c-1.11,1.41 -1.45,1.61 -2.52,2.88l-109.58 130.6c-3.36,4.28 -6.34,7.64 -9.83,11.79 -3.36,3.99 -6.2,7.3 -9.56,11.29 -1.75,2.08 -3.36,3.99 -4.88,5.94 -1.73,2.24 -3.01,3.35 -4.95,5.84 -1.59,2.02 -3.26,4.02 -4.91,5.91l-14.85 17.59c-1.49,1.92 -2.87,3.49 -4.52,5.51l-14.89 17.55c-3.28,4.05 -6.31,7.92 -9.76,11.86 -2.94,3.37 -8.25,7.73 -9.43,12.18l5.75 0 5.75 0 5.75 0 5.76 0 5.75 0 5.75 0 5.76 0 5.75 0 5.75 0 5.76 0 5.75 0 5.75 0 5.76 0 5.75 0 5.75 0 5.76 0 5.75 0 5.75 0 5.76 0 5.75 0 5.75 0 5.76 0 5.75 0 5.75 0 5.76 0 5.75 0 5.75 0 5.76 0 5.75 0 5.75 0 5.75 0 5.76 0 5.75 0 5.76 0 5.75 0 5.75 0 5.75 0 5.76 0 5.75 0 5.75 0 5.76 0 5.75 0 5.75 0 5.76 0 5.75 0 5.75 0 5.76 0 5.75 0 5.75 0 5.76 0 5.75 0 5.75 0 5.76 0 5.75 0 5.75 0 5.76 0 5.75 0 5.75 0 5.75 0 5.76 0 5.75 0 5.75 0 5.76 0 5.75 0 2.87 0c58.76,-0.01 117.65,-0.4 176.4,0l6.17 0c7.03,-0.37 6.93,-3.72 11.68,-9.06 21.14,-23.74 42.51,-51.04 63.36,-75.65l36.66 -43.66c14.45,-16.2 27.63,-33.64 42.06,-49.84l18.24 -21.91c12.86,-15.92 26.86,-30.94 39.16,-47.34 1.75,-2.35 3.3,-4.11 5.21,-6.37l15.86 -18.88c17.12,-21.14 35.4,-41.41 52.52,-62.55 3.5,-4.34 7.08,-8.1 10.59,-12.58 1.94,-2.49 3.23,-3.6 4.96,-5.85 1.54,-1.97 3.46,-4.32 5.23,-6.35l15.85 -18.89c1.91,-2.27 3.41,-4.04 5.34,-6.24 1.76,-2.03 3.7,-4.38 5.22,-6.35 1.73,-2.25 3.38,-3.9 5.3,-6.29l209.99 -250.27c10.78,-12.36 20.77,-25.64 31.65,-37.86l31.39 -37.33c12.53,-15.94 26.45,-30.81 39.17,-46.56l8.15 -9.61c1.94,-2.31 3.32,-3.99 5.2,-6.38l26.1 -31.06c16.18,-18.57 31.35,-38.15 47.54,-56.72l31.38 -37.34c10.97,-14.01 22.74,-27.11 34.19,-40.73l196.96 -234.73c3.78,-4.24 6.78,-8.33 10.47,-12.7l36.66 -43.66c2.02,-2.26 3.38,-3.94 5.39,-6.19l21.16 -25.18c9.06,-11.19 22,-27.31 31.35,-37.37l128.57 -153.32c1.32,-1.52 1.41,-1.95 2.73,-3.44 2.02,-2.26 3.38,-3.94 5.38,-6.2 3.78,-4.24 6.78,-8.32 10.48,-12.69l178.73 -212.81c15.93,-17.89 31.27,-37.65 46.77,-55.95l26.56 -31.35c1.94,-2.31 3.32,-3.99 5.2,-6.38 1.11,-1.42 1.45,-1.61 2.52,-2.89l86.97 -103.78c15.67,-18.61 32.01,-36.62 46.87,-55.84 1.73,-2.24 3.37,-3.9 5.3,-6.28 15.35,-19.02 32.22,-36.99 47.22,-56.27l21.08 -25.25c12.34,-14.57 24.32,-29.76 37.04,-44.06l26.17 -30.98c1.86,-2.3 3.32,-4.09 5.18,-6.4 17.12,-21.14 35.4,-41.41 52.51,-62.55 3.51,-4.33 7.08,-8.09 10.6,-12.57 13.37,-17.1 28.29,-33.11 41.92,-49.98 3.5,-4.34 7.06,-8.09 10.59,-12.58 1.86,-2.36 3.27,-4.12 5.19,-6.39l36.69 -43.62c1.37,-1.5 2.09,-2.99 2.46,-4.75l0 -15.96 0 -1059.55z"/>
   <path class="fil0 str0" d="M18.1 8.44l92.68 110.44c8.74,11.26 18.65,21.54 27.47,32.77 1.86,2.36 3.28,4.12 5.19,6.39l41.3 49.05c1.32,1.52 1.48,1.65 2.81,3.36l49.29 58.82c3.83,4.13 7.41,8.48 10.95,13 11.93,15.18 42.33,50.34 55.03,65.43l21.75 26.13c3.64,4.5 7.4,8.42 11.03,12.91l21.75 26.13c2.03,2.4 3.68,4.25 5.7,6.65l71.11 84.88c1.93,2.21 3.43,3.97 5.34,6.25l76.8 91.55c2.08,2.58 3.53,4.04 5.63,6.72l33.07 39.53c3.83,4.12 7.4,8.47 10.95,12.99 3.71,4.72 7.19,8.38 11.03,12.91 3.83,4.53 6.92,8.7 10.84,13.1 1.26,1.41 1.35,1.69 2.4,3l173.11 206.09c3.42,4.43 7.32,8.57 10.92,13.02 10.67,13.18 22.25,25.67 32.77,39.05l13.35 15.99c1.11,1.38 1.66,1.78 2.87,3.31 10.52,13.38 22.4,25.65 32.76,39.06 8.69,11.25 18.66,21.55 27.48,32.76l22.14 26.5c2.01,2.25 3.37,3.93 5.39,6.2 12.21,13.7 23.43,28.61 35.51,42.48 1.32,1.52 1.42,1.95 2.74,3.44l87.77 104.52c3.65,4.64 7.22,8.4 11.02,12.92l44.02 52.51c3.84,4.56 7,8.61 10.88,13.06l13.48 15.87c6.69,7.51 12.37,15.85 19.32,23.15 1.4,1.47 1.21,1.37 2.45,2.95l76.79 91.57c1.11,1.37 1.66,1.77 2.87,3.31 1.92,2.44 3.59,4.53 5.56,6.79l44.01 52.52c11.34,12.72 21.49,26.29 32.82,39 2,2.26 3.36,3.94 5.38,6.2l22.1 26.55c1.84,2.27 3.72,4.41 5.69,6.67l21.77 26.1c14.02,17.82 29.6,34.37 43.81,51.95 3.07,3.8 18.62,23.69 22.28,26.37 2.12,-1.43 3.11,-2.64 4.64,-4.64l43.35 -51.63c1.65,-2.03 3.03,-3.59 4.53,-5.51l17.6 -21.02c12.44,-14.28 35.7,-41.44 47.61,-56.65l74.38 -88.56c1.63,-1.75 2.59,-3.16 4.23,-5.04l78.49 -93.73c0.98,-1.21 3.78,-4.59 4.75,-5.29 -2.19,-3.27 -5.53,-7.13 -8.29,-10.24l-35.19 -42.03c-1.55,-1.84 -2.69,-3.29 -4.23,-5.04l-22.33 -26.32c-1.53,-1.79 -2.81,-3.34 -4.2,-5.06l-74.27 -88.68c-3.07,-3.66 -5.68,-6.94 -8.82,-10.48 -13.25,-14.87 -31.95,-39.83 -44.03,-52.5 -3.22,-3.38 -5.76,-6.9 -8.86,-10.45l-13.06 -15.51c-10.97,-13.54 -23.5,-29.4 -35.22,-42l-34.76 -41.69c-1.81,-2.02 -2.89,-3.38 -4.65,-5.39l-17.7 -20.91c-1.53,-1.79 -2.81,-3.35 -4.21,-5.06l-44.02 -52.52c-1.65,-2.02 -3.04,-3.59 -4.53,-5.51 -15.83,-20.49 -36.48,-42.18 -52.84,-63l-58.9 -70.07c-1.2,-1.43 -1.11,-1.61 -2.37,-3.03l-17.75 -20.87c-1.63,-1.74 -2.59,-3.16 -4.23,-5.03 -1.57,-1.79 -3.12,-3.68 -4.58,-5.47l-44.02 -52.51c-18.4,-22.79 -38.7,-44.62 -56.71,-67.63l-13.35 -16c-1.41,-1.73 -2.66,-3.22 -4.21,-5.05l-30.77 -36.43c-3,-3.71 -5.69,-6.74 -8.7,-10.59 -17.8,-22.78 -42.51,-49.71 -61.35,-73.03l-65.92 -78.49c-1.56,-1.78 -3.12,-3.68 -4.57,-5.47 -2.99,-3.7 -5.83,-6.65 -8.83,-10.48l-122.93 -146.59c-14.1,-14.82 -25.78,-31.83 -39.4,-47.1 -11.6,-13.02 -28.83,-33.04 -39.56,-46.93 -1.49,-1.92 -2.5,-2.93 -4.19,-5.07l-75.12 -89.38c-7.44,-8.85 -29.72,-34.38 -34.98,-42.24l-559.13 0z"/>
   <path class="fil0 str0" d="M3179.74 3401.77l-0.05 -1043.27c-0.48,-2.62 -1.69,-2.8 -3.48,-5.02 -2.77,-3.45 -5.03,-5.87 -7.83,-9.16l-258.83 -308.79c-2.39,-2.96 -5,-5.53 -7.51,-8.7l-129.62 -154.57c-2.5,-3.17 -5.06,-5.82 -7.4,-8.82l-76.78 -91.57c-2.31,-2.93 -5.05,-6.73 -8.18,-8.82l-34.57 41.88c-7.49,8.39 -13.97,17.28 -21.61,25.5l-34.76 41.68c-1.81,2.03 -2.88,3.38 -4.64,5.4 -16.32,18.72 -31.56,38.42 -47.88,57.15l-17.34 20.51c-16.45,18.87 -31.62,38.81 -48.27,57.52l-43.28 51.71c-3.1,3.55 -5.64,7.07 -8.86,10.45 -4.96,5.21 -13.67,15.22 -17.57,21.05 3.24,4.83 7.72,9.35 11.48,14.01 1.97,2.44 3.95,4.59 6.05,7.08 2.16,2.57 3.72,4.68 5.88,7.25 13.28,15.77 34.4,39.73 47.32,56.17 7.75,9.86 15.81,18.51 23.6,28.13 7.32,9.03 39.09,47.78 47.2,56.29 8.37,8.8 15.59,19.01 23.57,28.16 8.19,9.39 15.52,18.58 23.59,28.16 31.71,37.7 62.78,74.76 94.5,112.46 19.67,23.37 38.7,47.21 58.76,70.21 2.21,2.54 3.9,4.46 6.14,6.99 2.99,3.37 2.57,4.7 2.53,10.6 -0.13,17.23 -0.01,34.51 -0.01,51.74 0,276.21 0,552.43 0,828.64l427.83 0z"/>
   <path class="fil0 str0" d="M1737.16 1304.31c2.56,-1.71 2.47,-2.57 4.46,-4.82l231.26 -275.35c5.97,-6.85 39.75,-46.57 43.85,-52.69 -4.2,-4.83 -8.36,-9.49 -12.46,-14.56 -4.26,-5.26 -8.34,-9.82 -12.57,-15.23l-56.72 -67.63c-1.97,-2.44 -4.3,-4.96 -6.46,-7.44 -2.25,-2.58 -3.99,-4.97 -6.24,-7.66 -2.26,-2.68 -4.26,-4.79 -6.48,-7.42 -2.15,-2.54 -3.73,-4.7 -5.88,-7.26l-72.95 -86.9c-1.38,-1.59 -1.86,-2.21 -3.15,-3.8 -2.08,-2.57 -4.32,-4.94 -6.4,-7.51 -1.29,-1.59 -1.77,-2.22 -3.15,-3.8l-103.92 -123.9c-2.2,-2.53 -4.4,-5.05 -6.35,-7.56 -3.9,-5.01 -8.45,-9.65 -12.35,-14.67l-19.06 -22.64c-2.25,-2.67 -4,-5.06 -6.25,-7.65l-50.82 -60.4c-2.15,-2.75 -4.04,-5.04 -6.3,-7.6l-119.46 -142.34c-14.22,-18.15 -29.86,-35.04 -44.36,-52.95l-44.36 -52.95c-8.25,-9.74 -30.36,-37.01 -37.81,-44.82l-120.11 -143.24c-2.2,-2.53 -4.41,-5.04 -6.35,-7.56 -9.16,-11.78 -30.46,-34.53 -37.85,-45.56l-559.12 0c7.14,10.67 31.84,37.43 42.14,50.53l25.28 30.33c1.55,1.83 2.69,3.29 4.22,5.04l80.74 96.12c2.94,3.51 5.44,6.71 8.45,10.08l51.1 60.88c17.6,22.39 36.7,43.65 55.03,65.44l21.43 25.69c1.54,1.96 2.64,3.15 4.2,5.06l12.7 15.1c2.94,3.5 5.45,6.7 8.45,10.08l229.74 273.77c3.13,3.29 5.44,6.62 8.48,10.05 3.01,3.37 5.51,6.57 8.45,10.08l50.68 60.53c1.56,1.84 2.7,3.29 4.23,5.04l38.11 45.28c2.87,3.56 5.64,6.51 8.49,10.04 10.07,12.43 41.87,51.28 51.06,60.93 1.8,1.89 2.47,3.04 4.25,5.02l8.45 10.08c1.54,1.82 2.8,3.32 4.21,5.05l80.74 96.11c1.65,1.96 2.98,3.51 4.55,5.5l50.73 60.48c3.06,3.44 5.44,6.6 8.46,10.07l34.14 40.77c16.31,20.75 34.18,40.61 51.17,60.81l33.68 40.46c1.69,1.99 2.61,2.89 4.3,4.97l12.66 15.14c9.03,9.72 17.27,20.39 25.82,30.55 1.55,1.84 2.8,3.32 4.21,5.06 1.56,1.91 2.65,3.11 4.2,5.07 1.69,2.14 2.7,3.15 4.19,5.07 2.77,3.58 35.73,43.63 38.61,45.56z"/>
   <path class="fil0 str0" d="M2085.45 2472.74l47.78 56.49c11.31,14.01 29.35,33.96 39.49,47 15.96,20.55 39.96,46.27 56.05,66.75l39.86 47.4c3.3,3.95 2.16,8.66 2.16,15.59l0 680.37c0,7.31 -1.44,15.44 2.32,15.44l425.51 0 0 -863.38c0,-2.06 -7.82,-10.55 -9.59,-12.8l-10.67 -12.51c-1.27,-1.42 -1.17,-1.6 -2.37,-3.03l-28.53 -34.02c-2,-2.25 -3.37,-3.93 -5.38,-6.19 -14.36,-16.11 -32.36,-39.78 -47.13,-56.36 -1.82,-2.04 -3.18,-3.72 -4.96,-5.84l-5.32 -6.27c-3.5,-4.48 -6.86,-8.41 -10.54,-12.63 -17.04,-19.54 -35.18,-43.1 -52.14,-62.15 -3.78,-4.24 -6.77,-8.32 -10.47,-12.69l-41.67 -49.46c-3.73,-4.19 -7,-8.33 -10.5,-12.66l-64.87 -77.23c-1.11,-1.37 -1.66,-1.78 -2.87,-3.31l-26.58 -31.34c-2.66,1.78 -6.32,6.93 -8.73,9.8l-26.47 31.45c-2.88,3.69 -5.59,6.35 -8.49,10.04l-13.01 15.56c-1.56,1.98 -2.9,3.54 -4.55,5.49l-17.32 20.52c-17.82,20.01 -38.1,46.21 -56.75,67.59l-39.42 47.09c-3.05,3.43 -5.44,6.6 -8.46,10.07l-96.36 115.23z"/>
  </g>
  <path class="fil1" d="M3179.75 3401.78l-0.05 -1043.27c-0.48,-2.62 -1.69,-2.8 -3.48,-5.02 -2.77,-3.45 -5.03,-5.87 -7.83,-9.16l-258.83 -308.79c-2.39,-2.96 -5,-5.53 -7.51,-8.7l-129.62 -154.57c-2.5,-3.17 -5.06,-5.82 -7.4,-8.82l-76.78 -91.57c-2.31,-2.93 -5.05,-6.73 -8.18,-8.82l-34.57 41.88c-7.49,8.39 -13.97,17.28 -21.61,25.5l-34.76 41.68c-1.81,2.03 -2.88,3.38 -4.64,5.4 -16.32,18.72 -31.56,38.42 -47.88,57.15l-17.34 20.51c-16.45,18.87 -31.62,38.81 -48.27,57.52l-43.28 51.71c-3.1,3.55 -5.64,7.07 -8.86,10.45 -4.96,5.21 -13.67,15.22 -17.57,21.05 3.24,4.83 7.72,9.35 11.48,14.01 1.97,2.44 3.95,4.59 6.05,7.08 2.16,2.57 3.72,4.68 5.88,7.25 13.28,15.77 34.4,39.73 47.32,56.17 7.75,9.86 15.81,18.51 23.6,28.13 7.32,9.03 39.09,47.78 47.2,56.29 8.37,8.8 15.59,19.01 23.57,28.16 8.19,9.39 15.52,18.58 23.59,28.16 31.71,37.7 62.78,74.76 94.5,112.46 19.67,23.37 38.7,47.21 58.76,70.21 2.21,2.54 3.9,4.46 6.14,6.99 2.99,3.37 2.57,4.7 2.53,10.6 -0.13,17.23 -0.01,34.51 -0.01,51.74 0,276.21 0,552.43 0,828.64l427.83 0z"/>
  <path class="fil1" d="M1737.17 1304.32c2.56,-1.71 2.47,-2.57 4.46,-4.82l231.26 -275.35c5.97,-6.85 39.75,-46.57 43.85,-52.69 -4.2,-4.83 -8.36,-9.49 -12.46,-14.56 -4.26,-5.26 -8.34,-9.82 -12.57,-15.23l-56.72 -67.63c-1.97,-2.44 -4.3,-4.96 -6.46,-7.44 -2.25,-2.58 -3.99,-4.97 -6.24,-7.66 -2.26,-2.68 -4.26,-4.79 -6.48,-7.42 -2.15,-2.54 -3.73,-4.7 -5.88,-7.26l-72.95 -86.9c-1.38,-1.59 -1.86,-2.21 -3.15,-3.8 -2.08,-2.57 -4.32,-4.94 -6.4,-7.51 -1.29,-1.59 -1.77,-2.22 -3.15,-3.8l-103.92 -123.9c-2.2,-2.53 -4.4,-5.05 -6.35,-7.56 -3.9,-5.01 -8.45,-9.65 -12.35,-14.67l-19.06 -22.64c-2.25,-2.67 -4,-5.06 -6.25,-7.65l-50.82 -60.4c-2.15,-2.75 -4.04,-5.04 -6.3,-7.6l-119.46 -142.34c-14.22,-18.15 -29.86,-35.04 -44.36,-52.95l-44.36 -52.95c-8.25,-9.74 -30.36,-37.01 -37.81,-44.82l-120.11 -143.24c-2.2,-2.53 -4.41,-5.04 -6.35,-7.56 -9.16,-11.78 -30.46,-34.53 -37.85,-45.56l-559.12 0c7.14,10.67 31.84,37.43 42.14,50.53l25.28 30.33c1.55,1.83 2.69,3.29 4.22,5.04l80.74 96.12c2.94,3.51 5.44,6.71 8.45,10.08l51.1 60.88c17.6,22.39 36.7,43.65 55.03,65.44l21.43 25.69c1.54,1.96 2.64,3.15 4.2,5.06l12.7 15.1c2.94,3.5 5.45,6.7 8.45,10.08l229.74 273.77c3.13,3.29 5.44,6.62 8.48,10.05 3.01,3.37 5.51,6.57 8.45,10.08l50.68 60.53c1.56,1.84 2.7,3.29 4.23,5.04l38.11 45.28c2.87,3.56 5.64,6.51 8.49,10.04 10.07,12.43 41.87,51.28 51.06,60.93 1.8,1.89 2.47,3.04 4.25,5.02l8.45 10.08c1.54,1.82 2.8,3.32 4.21,5.05l80.74 96.11c1.65,1.96 2.98,3.51 4.55,5.5l50.73 60.48c3.06,3.44 5.44,6.6 8.46,10.07l34.14 40.77c16.31,20.75 34.18,40.61 51.17,60.81l33.68 40.46c1.69,1.99 2.61,2.89 4.3,4.97l12.66 15.14c9.03,9.72 17.27,20.39 25.82,30.55 1.55,1.84 2.8,3.32 4.21,5.06 1.56,1.91 2.65,3.11 4.2,5.07 1.69,2.14 2.7,3.15 4.19,5.07 2.77,3.58 35.73,43.63 38.61,45.56z"/>
 </g>
</svg>
